<svg xmlns="http://www.w3.org/2000/svg" width="1060" height="410" viewBox="0 0 1060 410">
  <defs>
    <linearGradient id="bg2" x1="0%" y1="0%" x2="100%" y2="100%">
      <stop offset="0%" style="stop-color:#111111"/>
      <stop offset="100%" style="stop-color:#1a1a1a"/>
    </linearGradient>
    <linearGradient id="orangeFlow" x1="0%" y1="0%" x2="100%" y2="0%">
      <stop offset="0%" style="stop-color:#FF6600"/>
      <stop offset="100%" style="stop-color:#FF8C00"/>
    </linearGradient>
    <marker id="arrowOrange" markerWidth="8" markerHeight="8" refX="6" refY="3" orient="auto">
      <path d="M0,0 L0,6 L8,3 z" fill="#FF6600"/>
    </marker>
    <marker id="arrowOrange2" markerWidth="8" markerHeight="8" refX="6" refY="3" orient="auto">
      <path d="M0,0 L0,6 L8,3 z" fill="#FF8C00"/>
    </marker>
    <marker id="arrowGray" markerWidth="8" markerHeight="8" refX="6" refY="3" orient="auto">
      <path d="M0,0 L0,6 L8,3 z" fill="#666666"/>
    </marker>
    <marker id="arrowDim" markerWidth="8" markerHeight="8" refX="6" refY="3" orient="auto">
      <path d="M0,0 L0,6 L8,3 z" fill="#555555"/>
    </marker>
    <marker id="arrowWhite" markerWidth="8" markerHeight="8" refX="6" refY="3" orient="auto">
      <path d="M0,0 L0,6 L8,3 z" fill="#CCCCCC"/>
    </marker>
  </defs>

  <!-- Background -->
  <rect width="1060" height="410" fill="url(#bg2)" rx="10"/>

  <!-- Brand strips -->
  <rect x="0" y="0"   width="1060" height="3" fill="url(#orangeFlow)" rx="1"/>
  <rect x="0" y="407" width="1060" height="3" fill="url(#orangeFlow)" rx="1"/>

  <!-- ═══════════════════════════════════════════════════════════════════
       LANE 1 — report_generator  ·  FRD → Paginated + Visual Reports
       ═══════════════════════════════════════════════════════════════════ -->

  <!-- Lane 1 accent bar + label -->
  <rect x="0" y="3" width="4" height="197" fill="#FF6600" opacity="0.6" rx="1"/>
  <text x="14" y="18" font-family="'Segoe UI', sans-serif" font-size="9" fill="#FF6600" letter-spacing="2">REPORT GENERATOR  ·  FRD → .rdl / .pbip / .md</text>

  <!-- Step labels -->
  <text x="75"  y="30" font-family="'Segoe UI', sans-serif" font-size="9" fill="#444" text-anchor="middle" letter-spacing="1">INPUT</text>
  <text x="238" y="30" font-family="'Segoe UI', sans-serif" font-size="9" fill="#444" text-anchor="middle" letter-spacing="1">STEP 1 — PARSE</text>
  <text x="416" y="30" font-family="'Segoe UI', sans-serif" font-size="9" fill="#666" text-anchor="middle" letter-spacing="1">CHECKPOINT</text>
  <text x="613" y="30" font-family="'Segoe UI', sans-serif" font-size="9" fill="#444" text-anchor="middle" letter-spacing="1">STEPS 2 – 4 — GENERATE</text>
  <text x="758" y="30" font-family="'Segoe UI', sans-serif" font-size="9" fill="#444" text-anchor="middle" letter-spacing="1">OUTPUT</text>
  <text x="867" y="30" font-family="'Segoe UI', sans-serif" font-size="9" fill="#444" text-anchor="middle" letter-spacing="1">PUBLISH</text>

  <!-- Node 1: FRD.docx -->
  <rect x="18" y="70" width="114" height="62" rx="8" fill="#1a1a1a" stroke="#FF6600" stroke-width="1.8"/>
  <rect x="31" y="81" width="22" height="28" rx="2" fill="#222" stroke="#FF6600" stroke-width="1"/>
  <path d="M46,81 L53,88 L53,109 L31,109 L31,81 Z" fill="none" stroke="#FF6600" stroke-width="1"/>
  <path d="M46,81 L46,88 L53,88" fill="none" stroke="#FF6600" stroke-width="1"/>
  <line x1="36" y1="94" x2="48" y2="94" stroke="#FF6600" stroke-width="1" opacity="0.5"/>
  <line x1="36" y1="98" x2="48" y2="98" stroke="#FF6600" stroke-width="1" opacity="0.5"/>
  <line x1="36" y1="102" x2="44" y2="102" stroke="#FF6600" stroke-width="1" opacity="0.5"/>
  <text x="93" y="97" font-family="monospace" font-size="12" fill="#FF6600" font-weight="bold" text-anchor="middle">FRD</text>
  <text x="93" y="112" font-family="monospace" font-size="10" fill="#444" text-anchor="middle">.docx</text>

  <!-- Arrow 1→2 -->
  <line x1="134" y1="101" x2="164" y2="101" stroke="#FF6600" stroke-width="2" marker-end="url(#arrowOrange)"/>

  <!-- Node 2: frd_parser.py -->
  <rect x="166" y="70" width="142" height="62" rx="8" fill="#1a1a1a" stroke="#FF8C00" stroke-width="1.8"/>
  <text x="237" y="97" font-family="monospace" font-size="11" fill="#FF8C00" text-anchor="middle">frd_parser</text>
  <text x="237" y="113" font-family="monospace" font-size="9"  fill="#444"   text-anchor="middle">.py</text>
  <rect x="179" y="120" width="116" height="6" rx="3" fill="#2a2a2a"/>
  <rect x="179" y="120" width="80"  height="6" rx="3" fill="#FF6600" opacity="0.35"/>

  <!-- Arrow 2→3 -->
  <line x1="310" y1="101" x2="340" y2="101" stroke="#FF8C00" stroke-width="2" marker-end="url(#arrowOrange2)"/>

  <!-- Node 3: frd_parsed.json (checkpoint) -->
  <rect x="342" y="66" width="146" height="70" rx="8" fill="#1a1a1a" stroke="#CCCCCC" stroke-width="2"/>
  <text x="415" y="93" font-family="monospace" font-size="11" fill="#CCCCCC" text-anchor="middle">frd_parsed</text>
  <text x="415" y="110" font-family="monospace" font-size="10" fill="#888"    text-anchor="middle">.json</text>
  <text x="415" y="152" font-family="'Segoe UI', sans-serif" font-size="9" fill="#555" text-anchor="middle">✎ review &amp; edit here</text>
  <line x1="415" y1="138" x2="415" y2="148" stroke="#444" stroke-width="1" stroke-dasharray="2,2"/>

  <!-- Fork from JSON right edge → three generator branches -->
  <line x1="490" y1="101" x2="512" y2="101" stroke="#888" stroke-width="1.5"/>
  <line x1="512" y1="56"  x2="512" y2="167" stroke="#555" stroke-width="1.5"/>
  <line x1="512" y1="56"  x2="534" y2="56"  stroke="#FF6600" stroke-width="2" marker-end="url(#arrowOrange)"/>
  <line x1="512" y1="101" x2="534" y2="101" stroke="#FF8C00" stroke-width="2" marker-end="url(#arrowOrange2)"/>
  <line x1="512" y1="167" x2="534" y2="167" stroke="#666"    stroke-width="1.5" marker-end="url(#arrowGray)"/>

  <!-- Node 4a: rdl_generator.py -->
  <rect x="536" y="36" width="148" height="40" rx="8" fill="#1a1a1a" stroke="#FF6600" stroke-width="1.8"/>
  <text x="610" y="54" font-family="monospace" font-size="10" fill="#FF6600" text-anchor="middle">rdl_generator.py</text>
  <text x="610" y="69" font-family="monospace" font-size="8.5" fill="#444" text-anchor="middle">paginated reports</text>

  <!-- Node 4b: pbip_generator.py -->
  <rect x="536" y="81" width="148" height="40" rx="8" fill="#1a1a1a" stroke="#FF8C00" stroke-width="1.8"/>
  <text x="610" y="99" font-family="monospace" font-size="10" fill="#FF8C00" text-anchor="middle">pbip_generator.py</text>
  <text x="610" y="114" font-family="monospace" font-size="8.5" fill="#444" text-anchor="middle">visual reports</text>

  <!-- pbi.properties config badge -->
  <rect x="548" y="128" width="124" height="22" rx="5" fill="#1a1a1a" stroke="#444" stroke-width="1.2" stroke-dasharray="3,2"/>
  <text x="610" y="143" font-family="monospace" font-size="9" fill="#555" text-anchor="middle">pbi.properties</text>
  <line x1="590" y1="128" x2="590" y2="121" stroke="#444" stroke-width="1" stroke-dasharray="2,2"/>
  <line x1="630" y1="128" x2="630" y2="76"  stroke="#444" stroke-width="1" stroke-dasharray="2,2"/>

  <!-- Node 4c: spec_generator.py -->
  <rect x="536" y="147" width="148" height="40" rx="8" fill="#1a1a1a" stroke="#666" stroke-width="1.5"/>
  <text x="610" y="165" font-family="monospace" font-size="10" fill="#888" text-anchor="middle">spec_generator.py</text>
  <text x="610" y="180" font-family="monospace" font-size="8.5" fill="#444" text-anchor="middle">review docs</text>

  <!-- Arrows generators → outputs -->
  <line x1="686" y1="56"  x2="718" y2="56"  stroke="#FF6600" stroke-width="2" marker-end="url(#arrowOrange)"/>
  <line x1="686" y1="101" x2="718" y2="101" stroke="#FF8C00" stroke-width="2" marker-end="url(#arrowOrange2)"/>
  <line x1="686" y1="167" x2="718" y2="167" stroke="#666"    stroke-width="1.5" stroke-dasharray="4,3" marker-end="url(#arrowGray)"/>

  <!-- Node 5a: .rdl -->
  <rect x="720" y="36" width="76" height="40" rx="8" fill="#1a1a1a" stroke="#FF6600" stroke-width="1.5"/>
  <text x="758" y="54" font-family="monospace" font-size="14" fill="#FF6600" text-anchor="middle" font-weight="bold">.rdl</text>
  <text x="758" y="69" font-family="'Segoe UI', sans-serif" font-size="8" fill="#444" text-anchor="middle">Report Builder</text>

  <!-- Node 5b: .pbip -->
  <rect x="720" y="81" width="76" height="40" rx="8" fill="#1a1a1a" stroke="#FF8C00" stroke-width="1.5"/>
  <text x="758" y="99" font-family="monospace" font-size="14" fill="#FF8C00" text-anchor="middle" font-weight="bold">.pbip</text>
  <text x="758" y="114" font-family="'Segoe UI', sans-serif" font-size="8" fill="#444" text-anchor="middle">PBI Desktop</text>

  <!-- Node 5c: .md (dashed) -->
  <rect x="720" y="147" width="76" height="40" rx="8" fill="#1a1a1a" stroke="#666" stroke-width="1.2" stroke-dasharray="4,3"/>
  <text x="758" y="165" font-family="monospace" font-size="14" fill="#666" text-anchor="middle" font-weight="bold">.md</text>
  <text x="758" y="180" font-family="'Segoe UI', sans-serif" font-size="8" fill="#444" text-anchor="middle">review specs</text>

  <!-- Arrows .rdl + .pbip → Fabric -->
  <line x1="798" y1="56"  x2="834" y2="74"  stroke="#FF6600" stroke-width="1.5" stroke-dasharray="4,3"/>
  <line x1="798" y1="101" x2="834" y2="91"  stroke="#FF8C00" stroke-width="1.5" stroke-dasharray="4,3"/>

  <!-- Fabric block (lane 1) -->
  <rect x="836" y="56" width="62" height="68" rx="6" fill="#1a1a1a" stroke="#333" stroke-width="1" stroke-dasharray="3,2"/>
  <text x="867" y="94" font-family="'Segoe UI', sans-serif" font-size="8" fill="#444" text-anchor="middle"
        transform="rotate(-90 867 94)">Microsoft Fabric</text>

  <!-- ═══════════════════════════════════════════════════════════════════
       DIVIDER
       ═══════════════════════════════════════════════════════════════════ -->
  <line x1="4" y1="205" x2="1056" y2="205" stroke="#252525" stroke-width="1.5"/>

  <!-- ═══════════════════════════════════════════════════════════════════
       LANE 2 — model_generator  ·  Snowflake → .SemanticModel + .Report
       ═══════════════════════════════════════════════════════════════════ -->

  <!-- Lane 2 accent bar + label -->
  <rect x="0" y="205" width="4" height="202" fill="#888888" opacity="0.5" rx="1"/>
  <text x="14" y="220" font-family="'Segoe UI', sans-serif" font-size="9" fill="#888" letter-spacing="2">MODEL GENERATOR  ·  semantic.properties → .SemanticModel + .Report</text>

  <!-- Step labels -->
  <text x="75"  y="232" font-family="'Segoe UI', sans-serif" font-size="9" fill="#444" text-anchor="middle" letter-spacing="1">CONFIG</text>
  <text x="238" y="232" font-family="'Segoe UI', sans-serif" font-size="9" fill="#444" text-anchor="middle" letter-spacing="1">ORCHESTRATE</text>
  <text x="416" y="232" font-family="'Segoe UI', sans-serif" font-size="9" fill="#444" text-anchor="middle" letter-spacing="1">INTROSPECT</text>
  <text x="613" y="232" font-family="'Segoe UI', sans-serif" font-size="9" fill="#444" text-anchor="middle" letter-spacing="1">BUILD</text>
  <text x="758" y="232" font-family="'Segoe UI', sans-serif" font-size="9" fill="#444" text-anchor="middle" letter-spacing="1">OUTPUT</text>
  <text x="867" y="232" font-family="'Segoe UI', sans-serif" font-size="9" fill="#444" text-anchor="middle" letter-spacing="1">DEPLOY</text>

  <!-- Node 1: semantic.properties -->
  <rect x="18" y="272" width="114" height="62" rx="8" fill="#1a1a1a" stroke="#888888" stroke-width="1.5"/>
  <text x="75" y="297" font-family="monospace" font-size="9" fill="#888888" text-anchor="middle">semantic</text>
  <text x="75" y="311" font-family="monospace" font-size="9" fill="#888888" text-anchor="middle">.properties</text>

  <!-- Arrow 1→2 -->
  <line x1="134" y1="303" x2="164" y2="303" stroke="#888" stroke-width="1.8" marker-end="url(#arrowGray)"/>

  <!-- Node 2: generate_models.py -->
  <rect x="166" y="272" width="142" height="62" rx="8" fill="#1a1a1a" stroke="#CCCCCC" stroke-width="1.5"/>
  <text x="237" y="297" font-family="monospace" font-size="10" fill="#CCCCCC" text-anchor="middle">generate_models</text>
  <text x="237" y="313" font-family="monospace" font-size="9"  fill="#444"    text-anchor="middle">.py</text>
  <rect x="179" y="322" width="116" height="6" rx="3" fill="#2a2a2a"/>
  <rect x="179" y="322" width="60"  height="6" rx="3" fill="#888" opacity="0.5"/>

  <!-- Arrow 2→3 -->
  <line x1="310" y1="303" x2="340" y2="303" stroke="#CCCCCC" stroke-width="1.8" marker-end="url(#arrowWhite)"/>

  <!-- Node 3: snowflake_client.py + Snowflake cloud badge -->
  <rect x="342" y="268" width="146" height="70" rx="8" fill="#1a1a1a" stroke="#CCCCCC" stroke-width="1.5"/>
  <text x="415" y="295" font-family="monospace" font-size="10" fill="#CCCCCC" text-anchor="middle">snowflake_client</text>
  <text x="415" y="311" font-family="monospace" font-size="9"  fill="#444"    text-anchor="middle">.py</text>
  <!-- Snowflake cloud badge feeding in from above -->
  <rect x="358" y="246" width="70" height="20" rx="5" fill="#1a1a1a" stroke="#444" stroke-width="1" stroke-dasharray="3,2"/>
  <text x="393" y="259" font-family="monospace" font-size="8.5" fill="#666" text-anchor="middle">Snowflake ↓</text>
  <line x1="393" y1="266" x2="393" y2="268" stroke="#444" stroke-width="1" stroke-dasharray="2,2"/>

  <!-- Fork from snowflake_client right edge → two builder branches -->
  <line x1="490" y1="303" x2="512" y2="303" stroke="#888" stroke-width="1.5"/>
  <line x1="512" y1="258" x2="512" y2="348" stroke="#555" stroke-width="1.5"/>
  <line x1="512" y1="258" x2="534" y2="258" stroke="#CCCCCC" stroke-width="1.8" marker-end="url(#arrowWhite)"/>
  <line x1="512" y1="348" x2="534" y2="348" stroke="#CCCCCC" stroke-width="1.8" marker-end="url(#arrowWhite)"/>

  <!-- Node 4a: tmdl_builder.py -->
  <rect x="536" y="238" width="148" height="40" rx="8" fill="#1a1a1a" stroke="#CCCCCC" stroke-width="1.5"/>
  <text x="610" y="256" font-family="monospace" font-size="10" fill="#CCCCCC" text-anchor="middle">tmdl_builder.py</text>
  <text x="610" y="271" font-family="monospace" font-size="8.5" fill="#444" text-anchor="middle">TMDL tables + measures</text>

  <!-- Node 4b: report_builder.py -->
  <rect x="536" y="328" width="148" height="40" rx="8" fill="#1a1a1a" stroke="#CCCCCC" stroke-width="1.5"/>
  <text x="610" y="346" font-family="monospace" font-size="10" fill="#CCCCCC" text-anchor="middle">report_builder.py</text>
  <text x="610" y="361" font-family="monospace" font-size="8.5" fill="#444" text-anchor="middle">PBIR placeholder page</text>

  <!-- semantic.properties config badge (feeds tmdl_builder) -->
  <rect x="548" y="283" width="124" height="22" rx="5" fill="#1a1a1a" stroke="#444" stroke-width="1.2" stroke-dasharray="3,2"/>
  <text x="610" y="298" font-family="monospace" font-size="9" fill="#555" text-anchor="middle">semantic.properties</text>
  <line x1="590" y1="283" x2="590" y2="278" stroke="#444" stroke-width="1" stroke-dasharray="2,2"/>
  <line x1="630" y1="283" x2="630" y2="323" stroke="#444" stroke-width="1" stroke-dasharray="2,2"/>

  <!-- Arrows builders → outputs -->
  <line x1="686" y1="258" x2="718" y2="258" stroke="#FF6600" stroke-width="2" marker-end="url(#arrowOrange)"/>
  <line x1="686" y1="348" x2="718" y2="348" stroke="#FF8C00" stroke-width="2" marker-end="url(#arrowOrange2)"/>

  <!-- Node 5a: .SemanticModel -->
  <rect x="720" y="238" width="76" height="40" rx="8" fill="#1a1a1a" stroke="#FF6600" stroke-width="1.5"/>
  <text x="758" y="253" font-family="monospace" font-size="8" fill="#FF6600" text-anchor="middle" font-weight="bold">.Semantic</text>
  <text x="758" y="265" font-family="monospace" font-size="8" fill="#FF8C00" text-anchor="middle" font-weight="bold">Model/</text>
  <text x="758" y="275" font-family="'Segoe UI', sans-serif" font-size="7" fill="#444" text-anchor="middle">TMDL + expressions</text>

  <!-- Node 5b: .Report -->
  <rect x="720" y="328" width="76" height="40" rx="8" fill="#1a1a1a" stroke="#FF8C00" stroke-width="1.5"/>
  <text x="758" y="346" font-family="monospace" font-size="12" fill="#FF8C00" text-anchor="middle" font-weight="bold">.Report/</text>
  <text x="758" y="361" font-family="'Segoe UI', sans-serif" font-size="7" fill="#444" text-anchor="middle">PBIR placeholder</text>

  <!-- Arrows .SemanticModel + .Report → Deploy -->
  <line x1="798" y1="258" x2="834" y2="276" stroke="#FF6600" stroke-width="1.5" stroke-dasharray="4,3"/>
  <line x1="798" y1="348" x2="834" y2="330" stroke="#FF8C00" stroke-width="1.5" stroke-dasharray="4,3"/>

  <!-- Deploy block (lane 2) -->
  <rect x="836" y="258" width="62" height="110" rx="6" fill="#1a1a1a" stroke="#333" stroke-width="1" stroke-dasharray="3,2"/>
  <text x="867" y="317" font-family="'Segoe UI', sans-serif" font-size="8" fill="#444" text-anchor="middle"
        transform="rotate(-90 867 317)">Fabric / PBI Desktop</text>

</svg>
