<svg xmlns="http://www.w3.org/2000/svg" width="860" height="160" viewBox="0 0 860 160">
  <defs>
    <linearGradient id="bg2" x1="0%" y1="0%" x2="100%" y2="100%">
      <stop offset="0%" style="stop-color:#111111"/>
      <stop offset="100%" style="stop-color:#1a1a1a"/>
    </linearGradient>
    <linearGradient id="orangeFlow" x1="0%" y1="0%" x2="100%" y2="0%">
      <stop offset="0%" style="stop-color:#FF6600"/>
      <stop offset="100%" style="stop-color:#FF8C00"/>
    </linearGradient>
    <marker id="arrowOrange" markerWidth="8" markerHeight="8" refX="6" refY="3" orient="auto">
      <path d="M0,0 L0,6 L8,3 z" fill="#FF6600"/>
    </marker>
    <marker id="arrowWhite" markerWidth="8" markerHeight="8" refX="6" refY="3" orient="auto">
      <path d="M0,0 L0,6 L8,3 z" fill="#FFFFFF"/>
    </marker>
    <marker id="arrowOrange2" markerWidth="8" markerHeight="8" refX="6" refY="3" orient="auto">
      <path d="M0,0 L0,6 L8,3 z" fill="#FF8C00"/>
    </marker>
  </defs>

  <!-- Background -->
  <rect width="860" height="160" fill="url(#bg2)" rx="10"/>

  <!-- Brightstar brand strip at top -->
  <rect x="0" y="0" width="860" height="3" fill="url(#orangeFlow)" rx="1"/>

  <!-- Step labels -->
  <text x="80"  y="22" font-family="'Segoe UI', sans-serif" font-size="9" fill="#444444" text-anchor="middle" letter-spacing="1">INPUT</text>
  <text x="240" y="22" font-family="'Segoe UI', sans-serif" font-size="9" fill="#444444" text-anchor="middle" letter-spacing="1">STEP 1</text>
  <text x="400" y="22" font-family="'Segoe UI', sans-serif" font-size="9" fill="#444444" text-anchor="middle" letter-spacing="1">STEP 2</text>
  <text x="600" y="22" font-family="'Segoe UI', sans-serif" font-size="9" fill="#444444" text-anchor="middle" letter-spacing="1">OUTPUT</text>
  <text x="775" y="22" font-family="'Segoe UI', sans-serif" font-size="9" fill="#444444" text-anchor="middle" letter-spacing="1">IMPORT TO</text>

  <!-- ── Node 1: FRD.docx ── -->
  <rect x="20" y="48" width="120" height="68" rx="8" fill="#1a1a1a" stroke="#FF6600" stroke-width="1.8"/>
  <!-- doc icon lines -->
  <rect x="36" y="61" width="24" height="30" rx="2" fill="#252525" stroke="#FF6600" stroke-width="1"/>
  <path d="M52,61 L60,69 L60,91 L36,91 L36,61 Z" fill="none" stroke="#FF6600" stroke-width="1"/>
  <path d="M52,61 L52,69 L60,69" fill="none" stroke="#FF6600" stroke-width="1"/>
  <line x1="41" y1="75" x2="55" y2="75" stroke="#FF6600" stroke-width="1" opacity="0.5"/>
  <line x1="41" y1="79" x2="55" y2="79" stroke="#FF6600" stroke-width="1" opacity="0.5"/>
  <line x1="41" y1="83" x2="50" y2="83" stroke="#FF6600" stroke-width="1" opacity="0.5"/>
  <text x="100" y="77" font-family="monospace" font-size="12" fill="#FF6600" font-weight="bold">FRD</text>
  <text x="100" y="92" font-family="monospace" font-size="10" fill="#444444">.docx</text>

  <!-- Arrow 1→2 -->
  <line x1="142" y1="82" x2="172" y2="82" stroke="#FF6600" stroke-width="2" marker-end="url(#arrowOrange)"/>

  <!-- ── Node 2: frd_parser.py ── -->
  <rect x="174" y="48" width="130" height="68" rx="8" fill="#1a1a1a" stroke="#FF8C00" stroke-width="1.8"/>
  <text x="239" y="77" font-family="monospace" font-size="11" fill="#FF8C00" text-anchor="middle">frd_parser</text>
  <text x="239" y="92" font-family="monospace" font-size="10" fill="#444444" text-anchor="middle">.py</text>
  <rect x="186" y="102" width="106" height="6" rx="3" fill="#2a2a2a"/>
  <rect x="186" y="102" width="75" height="6" rx="3" fill="#FF6600" opacity="0.4"/>
  <text x="239" y="109" font-family="'Segoe UI', sans-serif" font-size="7" fill="#555555" text-anchor="middle">parsing SDT controls</text>

  <!-- Arrow 2→3 -->
  <line x1="306" y1="82" x2="336" y2="82" stroke="#FF8C00" stroke-width="2" marker-end="url(#arrowOrange2)"/>

  <!-- ── Node 3: JSON ── -->
  <rect x="338" y="48" width="124" height="68" rx="8" fill="#1a1a1a" stroke="#FFFFFF" stroke-width="1.8" opacity="0.9"/>
  <text x="400" y="74" font-family="monospace" font-size="11" fill="#FFFFFF" text-anchor="middle">frd_parsed</text>
  <text x="400" y="89" font-family="monospace" font-size="10" fill="#888888" text-anchor="middle">.json</text>
  <text x="400" y="105" font-family="'Segoe UI', sans-serif" font-size="9" fill="#444444" text-anchor="middle">95 reports · structured</text>

  <!-- Arrow 3→4a (RDL) -->
  <path d="M464,73 Q502,73 510,58 L538,58" stroke="#FF6600" stroke-width="2" fill="none" marker-end="url(#arrowOrange)"/>
  <!-- Arrow 3→4b (PBIP) -->
  <path d="M464,91 Q502,91 510,106 L538,106" stroke="#FF8C00" stroke-width="2" fill="none" marker-end="url(#arrowOrange2)"/>

  <!-- ── Node 4a: rdl_generator ── -->
  <rect x="540" y="32" width="130" height="52" rx="8" fill="#1a1a1a" stroke="#FF6600" stroke-width="1.8"/>
  <text x="605" y="55" font-family="monospace" font-size="10" fill="#FF6600" text-anchor="middle">rdl_generator</text>
  <text x="605" y="70" font-family="monospace" font-size="9" fill="#444444" text-anchor="middle">.py  →  74 reports</text>

  <!-- ── Node 4b: pbip_generator ── -->
  <rect x="540" y="92" width="130" height="52" rx="8" fill="#1a1a1a" stroke="#FF8C00" stroke-width="1.8"/>
  <text x="605" y="115" font-family="monospace" font-size="10" fill="#FF8C00" text-anchor="middle">pbip_generator</text>
  <text x="605" y="130" font-family="monospace" font-size="9" fill="#444444" text-anchor="middle">.py  →  20 reports</text>

  <!-- Arrows 4→5 -->
  <line x1="672" y1="58" x2="702" y2="58" stroke="#FF6600" stroke-width="2" marker-end="url(#arrowOrange)"/>
  <line x1="672" y1="118" x2="702" y2="118" stroke="#FF8C00" stroke-width="2" marker-end="url(#arrowOrange2)"/>

  <!-- ── Node 5a: .rdl ── -->
  <rect x="704" y="32" width="80" height="52" rx="8" fill="#1a1a1a" stroke="#FF6600" stroke-width="1.5"/>
  <text x="744" y="55" font-family="monospace" font-size="14" fill="#FF6600" text-anchor="middle" font-weight="bold">.rdl</text>
  <text x="744" y="71" font-family="'Segoe UI', sans-serif" font-size="8.5" fill="#444444" text-anchor="middle">Report Builder</text>

  <!-- ── Node 5b: .pbip ── -->
  <rect x="704" y="92" width="80" height="52" rx="8" fill="#1a1a1a" stroke="#FF8C00" stroke-width="1.5"/>
  <text x="744" y="115" font-family="monospace" font-size="14" fill="#FF8C00" text-anchor="middle" font-weight="bold">.pbip</text>
  <text x="744" y="131" font-family="'Segoe UI', sans-serif" font-size="8.5" fill="#444444" text-anchor="middle">PBI Desktop</text>

  <!-- Dashed arrows to Fabric -->
  <line x1="786" y1="58"  x2="806" y2="58"  stroke="#FF6600" stroke-width="1.5" stroke-dasharray="4,3"/>
  <line x1="786" y1="118" x2="806" y2="118" stroke="#FF8C00" stroke-width="1.5" stroke-dasharray="4,3"/>
  <rect x="806" y="44" width="42" height="88" rx="6" fill="#1a1a1a" stroke="#333333" stroke-width="1" stroke-dasharray="3,2"/>
  <text x="827" y="93" font-family="'Segoe UI', sans-serif" font-size="8" fill="#444444" text-anchor="middle"
        transform="rotate(-90 827 93)">Fabric</text>

  <!-- Bottom brand strip -->
  <rect x="0" y="157" width="860" height="3" fill="url(#orangeFlow)" rx="1"/>
</svg>
