<svg xmlns="http://www.w3.org/2000/svg" width="1060" height="340" viewBox="0 0 1060 340">
  <defs>
    <linearGradient id="bg2" x1="0%" y1="0%" x2="100%" y2="100%">
      <stop offset="0%" style="stop-color:#111111"/>
      <stop offset="100%" style="stop-color:#1a1a1a"/>
    </linearGradient>
    <linearGradient id="orangeFlow" x1="0%" y1="0%" x2="100%" y2="0%">
      <stop offset="0%" style="stop-color:#FF6600"/>
      <stop offset="100%" style="stop-color:#FF8C00"/>
    </linearGradient>
    <marker id="arrowOrange" markerWidth="8" markerHeight="8" refX="6" refY="3" orient="auto">
      <path d="M0,0 L0,6 L8,3 z" fill="#FF6600"/>
    </marker>
    <marker id="arrowOrange2" markerWidth="8" markerHeight="8" refX="6" refY="3" orient="auto">
      <path d="M0,0 L0,6 L8,3 z" fill="#FF8C00"/>
    </marker>
    <marker id="arrowGray" markerWidth="8" markerHeight="8" refX="6" refY="3" orient="auto">
      <path d="M0,0 L0,6 L8,3 z" fill="#666666"/>
    </marker>
    <marker id="arrowDim" markerWidth="8" markerHeight="8" refX="6" refY="3" orient="auto">
      <path d="M0,0 L0,6 L8,3 z" fill="#555555"/>
    </marker>
    <marker id="arrowWhite" markerWidth="8" markerHeight="8" refX="6" refY="3" orient="auto">
      <path d="M0,0 L0,6 L8,3 z" fill="#CCCCCC"/>
    </marker>
  </defs>

  <!-- Background -->
  <rect width="1060" height="340" fill="url(#bg2)" rx="10"/>

  <!-- Brand strips -->
  <rect x="0" y="0"   width="1060" height="3" fill="url(#orangeFlow)" rx="1"/>
  <rect x="0" y="337" width="1060" height="3" fill="url(#orangeFlow)" rx="1"/>

  <!-- ═══════════════════════════════════════════════════════════════
       PATH A — FRD → JSON → .rdl / .pbip / .md
       ═══════════════════════════════════════════════════════════════ -->

  <!-- Step labels -->
  <text x="75"  y="22" font-family="'Segoe UI', sans-serif" font-size="9" fill="#444" text-anchor="middle" letter-spacing="1">INPUT</text>
  <text x="238" y="22" font-family="'Segoe UI', sans-serif" font-size="9" fill="#444" text-anchor="middle" letter-spacing="1">STEP 1 — PARSE</text>
  <text x="416" y="22" font-family="'Segoe UI', sans-serif" font-size="9" fill="#666" text-anchor="middle" letter-spacing="1">CHECKPOINT</text>
  <text x="613" y="22" font-family="'Segoe UI', sans-serif" font-size="9" fill="#444" text-anchor="middle" letter-spacing="1">STEPS 2 – 4 — GENERATE</text>
  <text x="820" y="22" font-family="'Segoe UI', sans-serif" font-size="9" fill="#444" text-anchor="middle" letter-spacing="1">OUTPUT</text>
  <text x="984" y="22" font-family="'Segoe UI', sans-serif" font-size="9" fill="#444" text-anchor="middle" letter-spacing="1">PUBLISH</text>

  <!-- Node 1: FRD.docx -->
  <rect x="18" y="86" width="114" height="62" rx="8" fill="#1a1a1a" stroke="#FF6600" stroke-width="1.8"/>
  <rect x="31" y="97" width="22" height="28" rx="2" fill="#222" stroke="#FF6600" stroke-width="1"/>
  <path d="M46,97 L53,104 L53,125 L31,125 L31,97 Z" fill="none" stroke="#FF6600" stroke-width="1"/>
  <path d="M46,97 L46,104 L53,104" fill="none" stroke="#FF6600" stroke-width="1"/>
  <line x1="36" y1="110" x2="48" y2="110" stroke="#FF6600" stroke-width="1" opacity="0.5"/>
  <line x1="36" y1="114" x2="48" y2="114" stroke="#FF6600" stroke-width="1" opacity="0.5"/>
  <line x1="36" y1="118" x2="44" y2="118" stroke="#FF6600" stroke-width="1" opacity="0.5"/>
  <text x="93" y="113" font-family="monospace" font-size="12" fill="#FF6600" font-weight="bold" text-anchor="middle">FRD</text>
  <text x="93" y="128" font-family="monospace" font-size="10" fill="#444" text-anchor="middle">.docx</text>

  <!-- Arrow 1→2 -->
  <line x1="134" y1="117" x2="164" y2="117" stroke="#FF6600" stroke-width="2" marker-end="url(#arrowOrange)"/>

  <!-- Node 2: frd_parser.py -->
  <rect x="166" y="86" width="142" height="62" rx="8" fill="#1a1a1a" stroke="#FF8C00" stroke-width="1.8"/>
  <text x="237" y="113" font-family="monospace" font-size="11" fill="#FF8C00" text-anchor="middle">frd_parser</text>
  <text x="237" y="129" font-family="monospace" font-size="9"  fill="#444"   text-anchor="middle">.py</text>
  <rect x="179" y="136" width="116" height="6" rx="3" fill="#2a2a2a"/>
  <rect x="179" y="136" width="80"  height="6" rx="3" fill="#FF6600" opacity="0.35"/>

  <!-- Arrow 2→3 -->
  <line x1="310" y1="117" x2="340" y2="117" stroke="#FF8C00" stroke-width="2" marker-end="url(#arrowOrange2)"/>

  <!-- Node 3: frd_parsed.json  (checkpoint) -->
  <rect x="342" y="82" width="146" height="70" rx="8" fill="#1a1a1a" stroke="#CCCCCC" stroke-width="2"/>
  <text x="415" y="109" font-family="monospace" font-size="11" fill="#CCCCCC" text-anchor="middle">frd_parsed</text>
  <text x="415" y="126" font-family="monospace" font-size="10" fill="#888"    text-anchor="middle">.json</text>
  <text x="415" y="168" font-family="'Segoe UI', sans-serif" font-size="9" fill="#555" text-anchor="middle">✎ review &amp; edit here</text>
  <line x1="415" y1="154" x2="415" y2="164" stroke="#444" stroke-width="1" stroke-dasharray="2,2"/>

  <!-- Fork from JSON right edge → three generator branches -->
  <line x1="490" y1="117" x2="512" y2="117" stroke="#888" stroke-width="1.5"/>
  <line x1="512" y1="72" x2="512" y2="183" stroke="#555" stroke-width="1.5"/>
  <line x1="512" y1="72"  x2="534" y2="72"  stroke="#FF6600" stroke-width="2" marker-end="url(#arrowOrange)"/>
  <line x1="512" y1="117" x2="534" y2="117" stroke="#FF8C00" stroke-width="2" marker-end="url(#arrowOrange2)"/>
  <line x1="512" y1="183" x2="534" y2="183" stroke="#666"    stroke-width="1.5" marker-end="url(#arrowGray)"/>

  <!-- Node 4a: rdl_generator.py -->
  <rect x="536" y="52" width="148" height="40" rx="8" fill="#1a1a1a" stroke="#FF6600" stroke-width="1.8"/>
  <text x="610" y="70" font-family="monospace" font-size="10" fill="#FF6600" text-anchor="middle">rdl_generator.py</text>
  <text x="610" y="85" font-family="monospace" font-size="8.5" fill="#444" text-anchor="middle">74 paginated reports</text>

  <!-- Node 4b: pbip_generator.py -->
  <rect x="536" y="97" width="148" height="40" rx="8" fill="#1a1a1a" stroke="#FF8C00" stroke-width="1.8"/>
  <text x="610" y="115" font-family="monospace" font-size="10" fill="#FF8C00" text-anchor="middle">pbip_generator.py</text>
  <text x="610" y="130" font-family="monospace" font-size="8.5" fill="#444" text-anchor="middle">21 visual reports</text>

  <!-- pbi.properties config badge (Path A) -->
  <rect x="548" y="145" width="124" height="22" rx="5" fill="#1a1a1a" stroke="#444" stroke-width="1.2" stroke-dasharray="3,2"/>
  <text x="610" y="160" font-family="monospace" font-size="9" fill="#555" text-anchor="middle">pbi.properties</text>
  <line x1="590" y1="145" x2="590" y2="138" stroke="#444" stroke-width="1" stroke-dasharray="2,2"/>
  <line x1="630" y1="145" x2="630" y2="92"  stroke="#444" stroke-width="1" stroke-dasharray="2,2"/>

  <!-- Node 4c: spec_generator.py -->
  <rect x="536" y="163" width="148" height="40" rx="8" fill="#1a1a1a" stroke="#666" stroke-width="1.5"/>
  <text x="610" y="181" font-family="monospace" font-size="10" fill="#888" text-anchor="middle">spec_generator.py</text>
  <text x="610" y="196" font-family="monospace" font-size="8.5" fill="#444" text-anchor="middle">review docs only</text>

  <!-- Arrows generators → outputs -->
  <line x1="686" y1="72"  x2="718" y2="72"  stroke="#FF6600" stroke-width="2" marker-end="url(#arrowOrange)"/>
  <line x1="686" y1="117" x2="718" y2="117" stroke="#FF8C00" stroke-width="2" marker-end="url(#arrowOrange2)"/>
  <line x1="686" y1="183" x2="718" y2="183" stroke="#666"    stroke-width="1.5" stroke-dasharray="4,3" marker-end="url(#arrowGray)"/>

  <!-- Node 5a: .rdl -->
  <rect x="720" y="52" width="76" height="40" rx="8" fill="#1a1a1a" stroke="#FF6600" stroke-width="1.5"/>
  <text x="758" y="70" font-family="monospace" font-size="14" fill="#FF6600" text-anchor="middle" font-weight="bold">.rdl</text>
  <text x="758" y="85" font-family="'Segoe UI', sans-serif" font-size="8" fill="#444" text-anchor="middle">Report Builder</text>

  <!-- Node 5b: .pbip -->
  <rect x="720" y="97" width="76" height="40" rx="8" fill="#1a1a1a" stroke="#FF8C00" stroke-width="1.5"/>
  <text x="758" y="115" font-family="monospace" font-size="14" fill="#FF8C00" text-anchor="middle" font-weight="bold">.pbip</text>
  <text x="758" y="130" font-family="'Segoe UI', sans-serif" font-size="8" fill="#444" text-anchor="middle">PBI Desktop</text>

  <!-- Node 5c: .md  (dashed — review only, feeds into Path B) -->
  <rect x="720" y="163" width="76" height="40" rx="8" fill="#1a1a1a" stroke="#666" stroke-width="1.2" stroke-dasharray="4,3"/>
  <text x="758" y="181" font-family="monospace" font-size="14" fill="#666" text-anchor="middle" font-weight="bold">.md</text>
  <text x="758" y="196" font-family="'Segoe UI', sans-serif" font-size="8" fill="#444" text-anchor="middle">review specs</text>

  <!-- Arrows .rdl + .pbip → Fabric -->
  <line x1="798" y1="72"  x2="834" y2="90"  stroke="#FF6600" stroke-width="1.5" stroke-dasharray="4,3"/>
  <line x1="798" y1="117" x2="834" y2="107" stroke="#FF8C00" stroke-width="1.5" stroke-dasharray="4,3"/>

  <!-- Fabric block -->
  <rect x="836" y="72" width="62" height="68" rx="6" fill="#1a1a1a" stroke="#333" stroke-width="1" stroke-dasharray="3,2"/>
  <text x="867" y="110" font-family="'Segoe UI', sans-serif" font-size="8" fill="#444" text-anchor="middle"
        transform="rotate(-90 867 110)">Microsoft Fabric</text>

  <!-- ═══════════════════════════════════════════════════════════════
       PATH B — REVIEWED SPEC .md → .rdl / .pbip
       ═══════════════════════════════════════════════════════════════ -->

  <!-- Divider -->
  <line x1="20" y1="214" x2="1040" y2="214" stroke="#252525" stroke-width="1"/>

  <!-- Path B label -->
  <text x="530" y="228" font-family="'Segoe UI', sans-serif" font-size="9" fill="#555" text-anchor="middle" letter-spacing="1">PATH B  ·  GENERATE DIRECTLY FROM REVIEWED SPEC</text>

  <!-- Connector: .md output (Path A) → reviewed spec .md (Path B) -->
  <!-- Down from .md node bottom-center (758,203) → right edge of spec .md input box (424,258) -->
  <path d="M758,203 L758,222 L386,222 L386,238" fill="none" stroke="#555" stroke-width="1.5" stroke-dasharray="5,3"/>
  <polygon points="382,234 386,240 390,234" fill="#555"/>

  <!-- reviewed spec .md input node -->
  <rect x="342" y="240" width="84" height="38" rx="8" fill="#1a1a1a" stroke="#666" stroke-width="1.5" stroke-dasharray="4,3"/>
  <text x="384" y="256" font-family="monospace" font-size="9.5" fill="#888" text-anchor="middle">reviewed</text>
  <text x="384" y="271" font-family="monospace" font-size="9.5" fill="#888" text-anchor="middle">spec .md</text>

  <!-- Arrow spec .md → spec generators -->
  <line x1="428" y1="259" x2="450" y2="259" stroke="#666" stroke-width="1.5" marker-end="url(#arrowGray)"/>

  <!-- spec_to_rdl.py + spec_to_pbip.py combined node -->
  <rect x="452" y="234" width="156" height="50" rx="8" fill="#1a1a1a" stroke="#FF8C00" stroke-width="1.8"/>
  <text x="530" y="252" font-family="monospace" font-size="9.5" fill="#FF6600" text-anchor="middle">spec_to_rdl.py</text>
  <line x1="462" y1="259" x2="598" y2="259" stroke="#2a2a2a" stroke-width="1"/>
  <text x="530" y="277" font-family="monospace" font-size="9.5" fill="#FF8C00" text-anchor="middle">spec_to_pbip.py</text>

  <!-- pbi.properties badge (Path B) -->
  <rect x="464" y="292" width="124" height="20" rx="5" fill="#1a1a1a" stroke="#444" stroke-width="1.2" stroke-dasharray="3,2"/>
  <text x="526" y="305" font-family="monospace" font-size="9" fill="#555" text-anchor="middle">pbi.properties</text>
  <line x1="527" y1="292" x2="527" y2="285" stroke="#444" stroke-width="1" stroke-dasharray="2,2"/>

  <!-- Arrow spec generators → spec outputs -->
  <line x1="610" y1="259" x2="630" y2="259" stroke="#FF8C00" stroke-width="1.8" marker-end="url(#arrowOrange2)"/>

  <!-- spec output: .rdl / .pbip combined node -->
  <rect x="632" y="234" width="76" height="50" rx="8" fill="#1a1a1a" stroke="#FF6600" stroke-width="1.5"/>
  <text x="670" y="253" font-family="monospace" font-size="13" fill="#FF6600" text-anchor="middle" font-weight="bold">.rdl</text>
  <line x1="642" y1="259" x2="698" y2="259" stroke="#2a2a2a" stroke-width="1"/>
  <text x="670" y="277" font-family="monospace" font-size="13" fill="#FF8C00" text-anchor="middle" font-weight="bold">.pbip</text>

  <!-- "from-spec/" label under output -->
  <text x="670" y="295" font-family="'Segoe UI', sans-serif" font-size="8" fill="#444" text-anchor="middle">output/from-spec/</text>

  <!-- spec_parser.py label under spec .md (shows shared parser) -->
  <text x="384" y="290" font-family="monospace" font-size="8" fill="#444" text-anchor="middle">spec_parser.py</text>

</svg>
